<?xml version="1.0" encoding="UTF-8"?><svg xmlns="http://www.w3.org/2000/svg" viewBox="0 0 6.71 12.47"><path class="cls-1" d="M3.48,12.47c-.06,0-.12-.01-.18-.04-.18-.07-.29-.25-.29-.44V7.14L.64,9.5c-.15,.15-.38,.15-.53,0-.15-.15-.15-.38,0-.53l2.74-2.73L.11,3.5c-.15-.15-.15-.38,0-.53,.15-.15,.38-.15,.53,0l2.36,2.36V.48c0-.19,.12-.37,.29-.44,.18-.07,.38-.03,.52,.1l2.76,2.76c.18,.19,.18,.49,0,.67l-2.67,2.66,2.67,2.66c.18,.19,.18,.49,0,.67l-2.76,2.76c-.09,.09-.21,.14-.34,.14Zm.27-5.33v4.19l2.09-2.09-2.09-2.09ZM3.75,1.14V5.33l2.09-2.09L3.75,1.14Z"/></svg>