<svg xmlns="http://www.w3.org/2000/svg" viewBox="0 0 12.91 12.92"><path class="cls-1" d="M8.04,5.25c-.1,0-.19-.04-.27-.11-.15-.15-.15-.38,0-.53L12.27,.11c.15-.15,.38-.15,.53,0,.15,.15,.15,.38,0,.53l-4.5,4.5c-.07,.07-.17,.11-.27,.11Z"/><path class="cls-1" d="M7.91,9.62c-.1,0-.19-.04-.27-.11-.15-.15-.15-.38,0-.53,.5-.5,.77-1.15,.77-1.86s-.27-1.36-.77-1.86c-.99-.99-2.72-.99-3.71,0-.15,.15-.38,.15-.53,0s-.15-.38,0-.53c1.28-1.28,3.5-1.28,4.77,0,.64,.64,.99,1.48,.99,2.39s-.35,1.75-.99,2.39c-.07,.07-.17,.11-.26,.11Z"/><path class="cls-1" d="M5.94,12.92c-.12,0-.24-.05-.33-.14L0,7.18v-.27c.01-.15,.1-.28,.23-.35l3.33-1.86,4.64,4.64-1.94,3.49-.26,.08s-.05,0-.07,0ZM.92,7.04l4.95,4.96,1.4-2.51-3.84-3.84L.92,7.04Z"/></svg>