<svg xmlns="http://www.w3.org/2000/svg" viewBox="0 0 14.75 12.75"><path class="cls-1" d="M12.38,12.75H2.38c-1.31,0-2.38-1.07-2.38-2.38V2.38C0,1.07,1.07,0,2.38,0H12.38c1.31,0,2.38,1.07,2.38,2.38V10.38c0,1.31-1.07,2.38-2.38,2.38ZM2.38,.75c-.9,0-1.62,.73-1.62,1.62V10.38c0,.9,.73,1.62,1.62,1.62H12.38c.9,0,1.62-.73,1.62-1.62V2.38c0-.9-.73-1.62-1.62-1.62H2.38Z"/><path class="cls-1" d="M14.38,3.75H.38c-.21,0-.38-.17-.38-.38s.17-.38,.38-.38H14.38c.21,0,.38,.17,.38,.38s-.17,.38-.38,.38Z"/><circle class="cls-1" cx="3.38" cy="6.38" r="1"/><circle class="cls-1" cx="7.38" cy="6.38" r="1"/><circle class="cls-1" cx="11.38" cy="6.38" r="1"/><circle class="cls-1" cx="3.38" cy="9.38" r="1"/><circle class="cls-1" cx="7.38" cy="9.38" r="1"/></svg>