<svg xmlns="http://www.w3.org/2000/svg" viewBox="0 0 14.67 13.26"><path class="cls-1" d="M0,10l.97-3.04c-.31-.65-.47-1.37-.47-2.09C.51,2.19,2.69,0,5.38,0s4.88,2.19,4.88,4.88-2.19,4.88-4.88,4.88c-.99,0-1.93-.29-2.74-.84l-2.64,1.09Zm2.74-1.95l.17,.13c.72,.54,1.57,.82,2.47,.82,2.27,0,4.12-1.85,4.12-4.12S7.66,.75,5.38,.75,1.26,2.6,1.26,4.88c0,.66,.16,1.31,.46,1.89l.07,.14-.57,1.79,1.53-.63Z"/><path class="cls-1" d="M14.67,13.26l-2.64-1.09c-.81,.55-1.75,.84-2.74,.84-1.68,0-3.22-.85-4.12-2.27-.11-.17-.06-.41,.12-.52,.18-.11,.41-.06,.52,.12,.76,1.2,2.07,1.92,3.49,1.92,.9,0,1.75-.28,2.47-.82l.17-.13,1.53,.63-.57-1.79,.07-.14c.3-.58,.46-1.23,.46-1.89,0-1.6-.94-3.07-2.39-3.74-.19-.09-.27-.31-.18-.5s.31-.27,.5-.18c1.71,.8,2.82,2.53,2.82,4.42,0,.72-.16,1.44-.47,2.09l.98,3.04Z"/><path class="cls-1" d="M7.38,4.25H3.38c-.21,0-.38-.17-.38-.38s.17-.38,.38-.38H7.38c.21,0,.38,.17,.38,.38s-.17,.38-.38,.38Z"/><path class="cls-1" d="M5.38,6.25H3.38c-.21,0-.38-.17-.38-.38s.17-.38,.38-.38h2c.21,0,.38,.17,.38,.38s-.17,.38-.38,.38Z"/></svg>