<?xml version="1.0" encoding="UTF-8"?><svg xmlns="http://www.w3.org/2000/svg" viewBox="0 0 12.75 14.75"><path class="cls-1" d="M6.38,14.75c-3.52,0-6.38-2.86-6.38-6.38S2.86,2,6.38,2s6.38,2.86,6.38,6.38-2.86,6.38-6.38,6.38Zm0-12C3.27,2.75,.75,5.27,.75,8.38s2.52,5.62,5.62,5.62,5.62-2.52,5.62-5.62S9.48,2.75,6.38,2.75Z"/><path class="cls-1" d="M6.38,8.75c-.21,0-.38-.17-.38-.38V4.38c0-.21,.17-.38,.38-.38s.38,.17,.38,.38v4c0,.21-.17,.38-.38,.38Z"/><path class="cls-1" d="M11.97,2.95c-.08,0-.16-.02-.22-.08l-1.6-1.2c-.17-.12-.2-.36-.08-.52,.12-.17,.36-.2,.52-.08l1.6,1.2c.17,.12,.2,.36,.08,.52-.07,.1-.19,.15-.3,.15Z"/><path class="cls-1" d="M8.38,.75H4.38c-.21,0-.38-.17-.38-.38s.17-.38,.38-.38h4c.21,0,.38,.17,.38,.38s-.17,.38-.38,.38Z"/></svg>