<svg id="_鍥惧眰_1" data-name="鍥惧眰 1" xmlns="http://www.w3.org/2000/svg" viewBox="0 0 14.75 12.75"><path class="cls-1" d="M12.38,12.75H2.38c-1.31,0-2.38-1.07-2.38-2.38V2.38C0,1.07,1.07,0,2.38,0H12.38c1.31,0,2.38,1.07,2.38,2.38V10.38c0,1.31-1.07,2.38-2.38,2.38ZM2.38,.75c-.9,0-1.62,.73-1.62,1.62V10.38c0,.9,.73,1.62,1.62,1.62H12.38c.9,0,1.62-.73,1.62-1.62V2.38c0-.9-.73-1.62-1.62-1.62H2.38Z"/><path class="cls-1" d="M14.38,3.75H.38c-.21,0-.38-.17-.38-.38s.17-.38,.38-.38H14.38c.21,0,.38,.17,.38,.38s-.17,.38-.38,.38Z"/><path class="cls-1" d="M4.38,10.75c-1.31,0-2.38-1.29-2.38-2.88s1.07-2.88,2.38-2.88c.76,0,1.48,.44,1.92,1.18,.11,.18,.05,.41-.13,.51-.18,.11-.41,.05-.51-.13-.31-.52-.78-.82-1.28-.82-.9,0-1.62,.95-1.62,2.12s.73,2.12,1.62,2.12c.5,0,.97-.3,1.28-.82,.11-.18,.34-.23,.51-.13,.18,.11,.23,.34,.13,.51-.45,.74-1.16,1.18-1.92,1.18Z"/><circle class="cls-1" cx="7.88" cy="6.38" r=".5"/><circle class="cls-1" cx="7.88" cy="9.38" r=".5"/><path class="cls-1" d="M12.38,10.75c-.13,0-.25-.06-.32-.18l-3-5c-.11-.18-.05-.41,.13-.51,.18-.11,.41-.05,.51,.13l3,5c.11,.18,.05,.41-.13,.51-.06,.04-.13,.05-.19,.05Z"/></svg>