<svg xmlns="http://www.w3.org/2000/svg" viewBox="0 0 14.75 14.75"><path class="cls-1" d="M7.38,3c-2.41,0-4.38,1.96-4.38,4.38s1.96,4.38,4.38,4.38,4.38-1.96,4.38-4.38-1.96-4.38-4.38-4.38Zm.25,7.97V3.78c1.88,.13,3.38,1.69,3.38,3.6s-1.49,3.47-3.38,3.6Z"/><path class="cls-1" d="M7.38,2.25c.21,0,.38-.17,.38-.38V.38c0-.21-.17-.38-.38-.38s-.38,.17-.38,.38V1.88c0,.21,.17,.38,.38,.38Z"/><path class="cls-1" d="M3.22,3.75c.07,.07,.17,.11,.27,.11s.19-.04,.27-.11c.15-.15,.15-.38,0-.53l-1.06-1.06c-.15-.15-.38-.15-.53,0-.15,.15-.15,.38,0,.53l1.06,1.06Z"/><path class="cls-1" d="M2.25,7.38c0-.21-.17-.38-.38-.38H.38c-.21,0-.38,.17-.38,.38s.17,.38,.38,.38H1.88c.21,0,.38-.17,.38-.38Z"/><path class="cls-1" d="M3.22,11l-1.06,1.06c-.15,.15-.15,.38,0,.53,.07,.07,.17,.11,.27,.11s.19-.04,.27-.11l1.06-1.06c.15-.15,.15-.38,0-.53-.15-.15-.38-.15-.53,0Z"/><path class="cls-1" d="M7.38,12.5c-.21,0-.38,.17-.38,.38v1.5c0,.21,.17,.38,.38,.38s.38-.17,.38-.38v-1.5c0-.21-.17-.38-.38-.38Z"/><path class="cls-1" d="M11.53,11c-.15-.15-.38-.15-.53,0-.15,.15-.15,.38,0,.53l1.06,1.06c.07,.07,.17,.11,.27,.11s.19-.04,.27-.11c.15-.15,.15-.38,0-.53l-1.06-1.06Z"/><path class="cls-1" d="M14.38,7h-1.5c-.21,0-.38,.17-.38,.38s.17,.38,.38,.38h1.5c.21,0,.38-.17,.38-.38s-.17-.38-.38-.38Z"/><path class="cls-1" d="M11.26,3.86c.1,0,.19-.04,.27-.11l1.06-1.06c.15-.15,.15-.38,0-.53-.15-.15-.38-.15-.53,0l-1.06,1.06c-.15,.15-.15,.38,0,.53,.07,.07,.17,.11,.27,.11Z"/></svg>