<svg xmlns="http://www.w3.org/2000/svg" viewBox="0 0 11.38 14.75"><path class="cls-1" d="M9.38,14.75H1.38c-.76,0-1.38-.62-1.38-1.38V1.38C0,.62,.62,0,1.38,0H5.53l5.22,5.22V13.38c0,.76-.62,1.38-1.38,1.38ZM1.38,.75c-.34,0-.62,.28-.62,.62V13.38c0,.34,.28,.62,.62,.62H9.38c.34,0,.62-.28,.62-.62V5.53L5.22,.75H1.38Z"/><rect class="cls-1" x="7.5" y="-.66" width=".75" height="7.07" transform="translate(.27 6.41) rotate(-45)"/><path class="cls-1" d="M10.38,5.75H6.38c-.76,0-1.38-.62-1.38-1.38V.38h.75V4.38c0,.34,.28,.62,.62,.62h4v.75Z"/></svg>