<svg xmlns="http://www.w3.org/2000/svg" viewBox="0 0 11.94 11.95"><path class="cls-1" d="M4.2,11.94c-.35,0-.7-.13-.97-.4L.4,8.71c-.54-.54-.54-1.41,0-1.95L6.77,.4c.54-.54,1.41-.54,1.95,0l2.83,2.83c.54,.54,.54,1.41,0,1.95l-6.36,6.36c-.27,.27-.62,.4-.97,.4ZM7.74,.75c-.16,0-.32,.06-.44,.18L.93,7.3c-.24,.24-.24,.64,0,.88l2.83,2.83c.24,.24,.64,.24,.88,0l6.36-6.36c.24-.24,.24-.64,0-.88L8.18,.93c-.12-.12-.28-.18-.44-.18Z"/><rect class="cls-1" x="3.83" y="4.74" width=".75" height="6" transform="translate(-4.24 5.24) rotate(-45)"/><path class="cls-1" d="M8.57,11.95H4.32c-.21,0-.38-.17-.38-.38s.17-.38,.38-.38h4.25c.21,0,.38,.17,.38,.38s-.17,.38-.38,.38Z"/></svg>