<svg xmlns="http://www.w3.org/2000/svg" viewBox="0 0 12.75 10.75"><path class="cls-1" d="M11.45,10.75H1.3c-.72,0-1.3-.52-1.3-1.17V3.66H.75v5.93c0,.22,.25,.42,.55,.42H11.45c.3,0,.55-.19,.55-.42V2.47c0-.22-.25-.42-.55-.42H6.38v-.75h5.08c.72,0,1.3,.52,1.3,1.17v7.12c0,.64-.58,1.17-1.3,1.17Z"/><path class="cls-1" d="M.38,4.23c-.21,0-.38-.17-.38-.38V1.24C0,.56,.62,0,1.38,0h3.46c.45,0,.87,.2,1.13,.53l.86,1.12-1.05,1.73c-.24,.4-.7,.64-1.2,.64H.71c-.06,.12-.19,.2-.33,.2Zm.38-.95h3.82c.24,0,.46-.11,.56-.28l.79-1.29-.55-.71c-.11-.15-.32-.24-.53-.24H1.38c-.34,0-.62,.23-.62,.49V3.28Z"/></svg>