<?xml version="1.0" encoding="UTF-8"?><svg xmlns="http://www.w3.org/2000/svg" viewBox="0 0 8.75 16.75"><path class="cls-1" d="M4.38,16.75c-2.41,0-4.38-1.96-4.38-4.38,0-1.48,.76-2.87,2-3.67V2.38C2,1.07,3.07,0,4.38,0s2.38,1.07,2.38,2.38v6.33c1.24,.8,2,2.19,2,3.67,0,2.41-1.96,4.38-4.38,4.38ZM4.38,.75c-.9,0-1.62,.73-1.62,1.62v6.75l-.19,.11c-1.12,.65-1.81,1.85-1.81,3.14,0,2,1.63,3.62,3.62,3.62s3.62-1.63,3.62-3.62c0-1.29-.69-2.49-1.81-3.14l-.19-.11V2.38c0-.9-.73-1.62-1.62-1.62Z"/><g><circle class="cls-2" cx="4.38" cy="12.38" r="2"/><path class="cls-1" d="M4.38,14.75c-1.31,0-2.38-1.07-2.38-2.38s1.07-2.38,2.38-2.38,2.38,1.07,2.38,2.38-1.07,2.38-2.38,2.38Zm0-4c-.9,0-1.62,.73-1.62,1.62s.73,1.62,1.62,1.62,1.62-.73,1.62-1.62-.73-1.62-1.62-1.62Z"/></g><path class="cls-1" d="M4.38,11.88c-.28,0-.5-.22-.5-.5V7.38c0-.28,.22-.5,.5-.5s.5,.22,.5,.5v4c0,.28-.22,.5-.5,.5Z"/></svg>