<svg xmlns="http://www.w3.org/2000/svg" viewBox="0 0 13.75 13.75"><path class="cls-1" d="M6.88,13.75C3.08,13.75,0,10.67,0,6.88S3.08,0,6.88,0s6.88,3.08,6.88,6.88-3.08,6.88-6.88,6.88ZM6.88,.75C3.5,.75,.75,3.5,.75,6.88s2.75,6.12,6.12,6.12,6.12-2.75,6.12-6.12S10.25,.75,6.88,.75Z"/><path class="cls-1" d="M6.69,13.63c-2.41-1.39-3.9-3.98-3.9-6.76S4.28,1.51,6.69,.12l.38,.65c-2.17,1.26-3.53,3.6-3.53,6.11s1.35,4.85,3.53,6.11l-.38,.65Z"/><path class="cls-1" d="M6.94,13.7l-.36-.66c2.24-1.24,3.64-3.61,3.64-6.17S8.86,2.02,6.69,.76l.38-.65c2.41,1.39,3.9,3.98,3.9,6.76s-1.54,5.45-4.02,6.83Z"/><path class="cls-1" d="M12.91,4.93H.84c-.21,0-.38-.17-.38-.38s.17-.38,.38-.38H12.91c.21,0,.38,.17,.38,.38s-.17,.38-.38,.38Z"/><path class="cls-1" d="M12.91,9.57H.84c-.21,0-.38-.17-.38-.38s.17-.38,.38-.38H12.91c.21,0,.38,.17,.38,.38s-.17,.38-.38,.38Z"/></svg>