<svg xmlns="http://www.w3.org/2000/svg" viewBox="0 0 11.25 8.75"><path class="cls-1" d="M5.87,8.25c-1.31,0-2.38-1.07-2.38-2.38,0-.82,.41-1.57,1.1-2l.4,.63c-.47,.3-.75,.81-.75,1.37,0,.9,.73,1.62,1.62,1.62,.71,0,1.33-.45,1.55-1.12l.71,.23c-.32,.98-1.23,1.64-2.26,1.64Z"/><path class="cls-1" d="M10.87,5.25c-.21,0-.38-.17-.38-.38,0-2-2.08-3.62-4.62-3.62-.8,0-1.59,.16-2.28,.47-.19,.08-.41,0-.5-.19-.08-.19,0-.41,.19-.5,.79-.35,1.68-.54,2.59-.54,2.96,0,5.38,1.96,5.38,4.38,0,.21-.17,.38-.38,.38Z"/><path class="cls-1" d="M.87,5.25c-.21,0-.38-.17-.38-.38,0-1.21,.59-2.34,1.67-3.17,.16-.13,.4-.1,.53,.07,.13,.16,.1,.4-.07,.53-.89,.69-1.38,1.6-1.38,2.58,0,.21-.17,.38-.38,.38Z"/><path class="cls-1" d="M10.37,8.75c-.08,0-.17-.03-.23-.08L.14,.67C-.02,.54-.05,.3,.08,.14,.21-.02,.45-.05,.61,.08L10.61,8.08c.16,.13,.19,.37,.06,.53-.07,.09-.18,.14-.29,.14Z"/></svg>