<?xml version="1.0" encoding="UTF-8"?><svg xmlns="http://www.w3.org/2000/svg" viewBox="0 0 13.75 13.75"><path class="cls-1" d="M11.52,13.75H1.23c-.68,0-1.23-.55-1.23-1.23V2.23c0-.68,.55-1.23,1.23-1.23h6.86c.21,0,.38,.17,.38,.38s-.17,.38-.38,.38H1.23c-.27,0-.48,.22-.48,.48V12.52c0,.27,.22,.48,.48,.48H11.52c.27,0,.48-.22,.48-.48V5.66c0-.21,.17-.38,.38-.38s.38,.17,.38,.38v6.86c0,.68-.55,1.23-1.23,1.23Z"/><path class="cls-1" d="M3.78,9.97l1.19-3.45L11.02,.47c.3-.3,.7-.47,1.13-.47,.88,0,1.6,.72,1.6,1.6,0,.43-.17,.83-.47,1.13l-6.2,6.14-3.3,1.1Zm1.79-2.98l-.6,1.8,1.8-.6L12.75,2.2c.16-.16,.25-.37,.25-.6,0-.47-.38-.85-.85-.85-.23,0-.44,.09-.6,.25L5.57,6.98Z"/><rect class="cls-1" x="11.36" y=".85" width=".75" height="2.31" transform="translate(2.02 8.89) rotate(-45)"/></svg>