<svg xmlns="http://www.w3.org/2000/svg" viewBox="0 0 13.25 10.75"><path class="cls-1" d="M5.29,10.75h-.13l-2.42-2H1.21c-.67,0-1.21-.62-1.21-1.38V3.38c0-.76,.54-1.38,1.21-1.38h1.53L5.16,0h.13c.25,0,.46,.21,.46,.46V10.29c0,.25-.21,.46-.46,.46ZM1.21,2.75c-.25,0-.46,.29-.46,.62V7.38c0,.34,.21,.62,.46,.62h1.8l1.99,1.65V1.1l-1.99,1.65H1.21Z"/><path class="cls-1" d="M12.88,8.75c-.1,0-.19-.04-.27-.11L6.61,2.64c-.15-.15-.15-.38,0-.53,.15-.15,.38-.15,.53,0l6,6c.15,.15,.15,.38,0,.53-.07,.07-.17,.11-.27,.11Z"/><path class="cls-1" d="M6.88,8.75c-.1,0-.19-.04-.27-.11-.15-.15-.15-.38,0-.53L12.61,2.11c.15-.15,.38-.15,.53,0,.15,.15,.15,.38,0,.53l-6,6c-.07,.07-.17,.11-.27,.11Z"/></svg>