<svg xmlns="http://www.w3.org/2000/svg" viewBox="0 0 10.94 12.28"><path class="cls-1" d="M10.64,9.3l-.02-.02s-1.3-.87-1.88-1.26c-.24-.16-.48-.24-.72-.24-.35,0-.56,.17-.58,.19l-.03,.03s-.12,.13-.34,.31c-.19,.16-.48,.13-.71-.09-.34-.32-2.24-2.67-2.84-3.47-.1-.14-.14-.26-.12-.37,.04-.25,.36-.47,.53-.59l.07-.05c.41-.3,.46-.81,.33-1.16-.08-.21-.85-1.87-.95-2.06-.11-.23-.32-.53-.81-.53-.26,0-.92,.1-1.35,.41l-.09,.06c-.39,.27-1.11,.76-1.11,1.82,0,1.3,.95,3.21,2.91,5.84,2.1,2.83,4.62,4.14,5.66,4.14,.98,0,1.92-1.19,2.22-1.76,.31-.59,.04-1.05-.16-1.22ZM2.74,4.27c-.05,.29,.03,.58,.24,.86,.56,.75,2.53,3.2,2.91,3.56,.47,.44,1.13,.48,1.57,.11,.2-.17,.32-.29,.38-.35,.02-.01,.08-.04,.16-.04,.11,0,.23,.04,.36,.13,.54,.37,1.72,1.15,1.85,1.24,.03,.04,.13,.17,0,.42-.25,.48-1.01,1.41-1.65,1.41-.79,0-3.1-1.14-5.14-3.88C1.56,5.23,.65,3.44,.65,2.29c0-.71,.48-1.04,.83-1.29l.1-.07c.28-.2,.78-.29,.98-.29,.12,0,.16,.03,.23,.17,.09,.18,.86,1.83,.92,2,.03,.07,.07,.29-.1,.4l-.06,.04c-.25,.17-.72,.49-.8,1.01Z"/></svg>