<svg xmlns="http://www.w3.org/2000/svg" viewBox="0 0 12.75 12.75"><path class="cls-1" d="M8.63,7.77c-.15,0-.29-.09-.35-.24-.08-.19,.02-.41,.21-.48l3.46-1.33c.08-.13,.04-.32-.09-.46L7.49,.88c-.14-.14-.33-.17-.46-.09l-1.33,3.46c-.07,.19-.29,.29-.48,.22-.19-.07-.29-.29-.21-.48L6.45,.3c.42-.42,1.12-.39,1.57,.06l4.38,4.37c.45,.45,.47,1.15,.05,1.57l-.13,.08-3.55,1.37s-.09,.02-.13,.02Z"/><path class="cls-1" d="M7.35,11.68L1.07,5.4l4.14-1.63c.19-.07,.41,.02,.49,.21,.08,.19-.02,.41-.21,.49l-3.08,1.21,4.66,4.66,1.21-3.08c.08-.19,.3-.29,.49-.21,.19,.08,.29,.29,.21,.49l-1.63,4.14Z"/><path class="cls-1" d="M.37,12.75c-.1,0-.19-.04-.27-.11-.15-.15-.15-.38,0-.53l3.83-3.83c.15-.15,.38-.15,.53,0,.15,.15,.15,.38,0,.53L.64,12.64c-.07,.07-.17,.11-.27,.11Z"/></svg>