<?xml version="1.0" encoding="UTF-8"?><svg xmlns="http://www.w3.org/2000/svg" viewBox="0 0 14.25 14.25"><path class="cls-1" d="M4.88,6.25H1.38c-.76,0-1.38-.62-1.38-1.38V1.38C0,.62,.62,0,1.38,0h3.5c.76,0,1.38,.62,1.38,1.38v3.5c0,.76-.62,1.38-1.38,1.38ZM1.38,.75c-.34,0-.62,.28-.62,.62v3.5c0,.34,.28,.62,.62,.62h3.5c.34,0,.62-.28,.62-.62V1.38c0-.34-.28-.62-.62-.62H1.38Z"/><rect class="cls-2" x="1.75" y="1.75" width="2.75" height="2.75" rx=".5" ry=".5"/><path class="cls-1" d="M4.88,14.25H1.38c-.76,0-1.38-.62-1.38-1.38v-3.5c0-.76,.62-1.38,1.38-1.38h3.5c.76,0,1.38,.62,1.38,1.38v3.5c0,.76-.62,1.38-1.38,1.38ZM1.38,8.75c-.34,0-.62,.28-.62,.62v3.5c0,.34,.28,.62,.62,.62h3.5c.34,0,.62-.28,.62-.62v-3.5c0-.34-.28-.62-.62-.62H1.38Z"/><rect class="cls-2" x="1.75" y="9.75" width="2.75" height="2.75" rx=".5" ry=".5"/><path class="cls-1" d="M12.88,6.25h-3.5c-.76,0-1.38-.62-1.38-1.38V1.38c0-.76,.62-1.38,1.38-1.38h3.5c.76,0,1.38,.62,1.38,1.38v3.5c0,.76-.62,1.38-1.38,1.38ZM9.38,.75c-.34,0-.62,.28-.62,.62v3.5c0,.34,.28,.62,.62,.62h3.5c.34,0,.62-.28,.62-.62V1.38c0-.34-.28-.62-.62-.62h-3.5Z"/><rect class="cls-2" x="9.75" y="1.75" width="2.75" height="2.75" rx=".5" ry=".5"/><rect class="cls-2" x="8.38" y="8.38" width="1.83" height="1.83"/><rect class="cls-2" x="12.04" y="8.38" width="1.83" height="1.83"/><rect class="cls-2" x="10.21" y="10.21" width="1.83" height="1.83"/><rect class="cls-2" x="8.38" y="12.04" width="1.83" height="1.83"/><rect class="cls-2" x="12.04" y="12.04" width="1.83" height="1.83"/></svg>