<?xml version="1.0" encoding="UTF-8"?>
<svg xmlns="http://www.w3.org/2000/svg" viewBox="0 0 6.75 12.37"><path class="cls-1" d="M3.38,9.75c-.21,0-.38-.17-.38-.38v-1.72c0-.56,.38-1.05,.91-1.17,1.45-.33,2.35-1.92,2.01-3.53-.22-1.04-.99-1.89-1.94-2.13-.76-.19-1.51-.03-2.13,.45-.7,.54-1.11,1.43-1.11,2.37,0,.21-.17,.38-.38,.38s-.38-.17-.38-.38C0,2.48,.52,1.37,1.4,.69,2.2,.06,3.19-.14,4.17,.1c1.23,.31,2.21,1.37,2.49,2.7,.42,2.01-.74,3.99-2.58,4.41-.2,.04-.33,.23-.33,.44v1.72c0,.21-.17,.38-.38,.38Z"/><circle class="cls-1" cx="3.38" cy="11.87" r=".5"/></svg>