<?xml version="1.0" encoding="UTF-8"?>
<svg xmlns="http://www.w3.org/2000/svg" viewBox="0 0 12.75 10.75"><path class="cls-1" d="M12.38,1.75H.38c-.21,0-.38-.17-.38-.38s.17-.38,.38-.38H12.38c.21,0,.38,.17,.38,.38s-.17,.38-.38,.38Z"/><path class="cls-1" d="M12.38,5.75H.38c-.21,0-.38-.17-.38-.38s.17-.38,.38-.38H12.38c.21,0,.38,.17,.38,.38s-.17,.38-.38,.38Z"/><path class="cls-1" d="M12.38,9.75H.38c-.21,0-.38-.17-.38-.38s.17-.38,.38-.38H12.38c.21,0,.38,.17,.38,.38s-.17,.38-.38,.38Z"/><g><circle class="cls-1" cx="3.38" cy="1.38" r="1"/><path class="cls-1" d="M3.38,2.75c-.76,0-1.38-.62-1.38-1.38s.62-1.38,1.38-1.38,1.38,.62,1.38,1.38-.62,1.38-1.38,1.38ZM3.38,.75c-.34,0-.62,.28-.62,.62s.28,.62,.62,.62,.62-.28,.62-.62-.28-.62-.62-.62Z"/></g><g><circle class="cls-1" cx="10.38" cy="5.38" r="1"/><path class="cls-1" d="M10.38,6.75c-.76,0-1.38-.62-1.38-1.38s.62-1.38,1.38-1.38,1.38,.62,1.38,1.38-.62,1.38-1.38,1.38Zm0-2c-.34,0-.62,.28-.62,.62s.28,.62,.62,.62,.62-.28,.62-.62-.28-.62-.62-.62Z"/></g><g><circle class="cls-1" cx="5.38" cy="9.38" r="1"/><path class="cls-1" d="M5.38,10.75c-.76,0-1.38-.62-1.38-1.38s.62-1.38,1.38-1.38,1.38,.62,1.38,1.38-.62,1.38-1.38,1.38Zm0-2c-.34,0-.62,.28-.62,.62s.28,.62,.62,.62,.62-.28,.62-.62-.28-.62-.62-.62Z"/></g></svg>