<?xml version="1.0" encoding="UTF-8"?><svg xmlns="http://www.w3.org/2000/svg" viewBox="0 0 13.34 13.75"><path class="cls-1" d="M12.04,5.38h-.75C11.29,2.83,9.22,.75,6.67,.75S2.04,2.83,2.04,5.38h-.75C1.29,2.41,3.7,0,6.67,0s5.38,2.41,5.38,5.38Z"/><path class="cls-1" d="M12.46,11.75H.88c-.35,0-.67-.21-.81-.54-.14-.33-.06-.7,.19-.95l1.04-1.04v-3.84h.75v4.16l-1.26,1.26c-.05,.05-.04,.11-.03,.14,.01,.03,.04,.08,.12,.08H12.46c.07,0,.1-.05,.12-.08,.01-.03,.02-.08-.03-.14l-1.26-1.26V5.38h.75v3.84l1.04,1.04c.25,.25,.33,.63,.19,.95-.14,.33-.45,.54-.81,.54Z"/><path class="cls-1" d="M6.67,13.75c-1.31,0-2.38-1.07-2.38-2.38h.75c0,.9,.73,1.62,1.62,1.62s1.62-.73,1.62-1.62h.75c0,1.31-1.07,2.38-2.38,2.38Z"/></svg>