<?xml version="1.0" encoding="UTF-8"?><svg xmlns="http://www.w3.org/2000/svg" viewBox="0 0 13.37 12.38"><path class="cls-1" d="M10.71,9.38H4.29c-.58,0-1.1-.38-1.29-.94L1.69,4.43c-.14-.42-.06-.89,.2-1.25,.26-.36,.66-.56,1.09-.56H12.02c.43,0,.83,.2,1.09,.56,.26,.36,.33,.83,.2,1.25l-1.31,4c-.18,.56-.7,.94-1.29,.94ZM2.98,3.38c-.19,0-.37,.09-.48,.25-.12,.17-.15,.38-.09,.58l1.31,4c.08,.25,.31,.42,.57,.42h6.43c.26,0,.49-.17,.57-.43l1.31-4c.06-.2,.03-.41-.09-.58-.12-.16-.29-.25-.48-.25H2.98Z"/><path class="cls-1" d="M5,12.38c-.76,0-1.38-.62-1.38-1.38s.62-1.38,1.38-1.38,1.38,.62,1.38,1.38-.62,1.38-1.38,1.38Zm0-2c-.34,0-.62,.28-.62,.62s.28,.62,.62,.62,.62-.28,.62-.62-.28-.62-.62-.62Z"/><path class="cls-1" d="M10,12.38c-.76,0-1.38-.62-1.38-1.38s.62-1.38,1.38-1.38,1.38,.62,1.38,1.38-.62,1.38-1.38,1.38Zm0-2c-.34,0-.62,.28-.62,.62s.28,.62,.62,.62,.62-.28,.62-.62-.28-.62-.62-.62Z"/><path class="cls-1" d="M1.97,4.38c-.17,0-.32-.11-.36-.28-.2-.76-.25-.92-.3-1.1l-.2-.72c-.1-.39-.53-.65-.76-.79l-.13-.08C.05,1.29,0,1.05,.12,.88c.12-.17,.35-.21,.52-.1l.09,.06c.3,.18,.92,.55,1.1,1.23l.2,.71c.05,.19,.1,.35,.3,1.11,.05,.2-.07,.41-.27,.46-.03,0-.07,.01-.1,.01Z"/></svg>