<?xml version="1.0" encoding="UTF-8"?><svg xmlns="http://www.w3.org/2000/svg" viewBox="0 0 12.75 13.75"><path class="cls-1" d="M6.38,13.75C2.86,13.75,0,10.86,0,7.31,0,5.21,1.02,3.23,2.73,2.02c.17-.12,.4-.08,.52,.09,.12,.17,.08,.4-.09,.52C1.65,3.7,.75,5.45,.75,7.31c0,3.14,2.52,5.69,5.62,5.69s5.62-2.55,5.62-5.69c0-1.86-.9-3.61-2.41-4.67-.17-.12-.21-.35-.09-.52,.12-.17,.36-.21,.52-.09,1.71,1.21,2.73,3.18,2.73,5.29,0,3.55-2.86,6.44-6.38,6.44Z"/><path class="cls-1" d="M6.38,6.75c-.21,0-.38-.17-.38-.38V.38c0-.21,.17-.38,.38-.38s.38,.17,.38,.38V6.38c0,.21-.17,.38-.38,.38Z"/></svg>