<svg xmlns="http://www.w3.org/2000/svg" viewBox="0 0 14.75 14.75"><path class="cls-1" d="M7.38,11.75c-2.41,0-4.38-1.96-4.38-4.38S4.96,3,7.38,3s4.38,1.96,4.38,4.38-1.96,4.38-4.38,4.38Zm0-8c-2,0-3.62,1.63-3.62,3.62s1.63,3.62,3.62,3.62,3.62-1.63,3.62-3.62-1.63-3.62-3.62-3.62Z"/><path class="cls-1" d="M7.38,2.25c-.21,0-.38-.17-.38-.38V.38c0-.21,.17-.38,.38-.38s.38,.17,.38,.38V1.88c0,.21-.17,.38-.38,.38Z"/><path class="cls-1" d="M3.49,3.86c-.1,0-.19-.04-.27-.11l-1.06-1.06c-.15-.15-.15-.38,0-.53,.15-.15,.38-.15,.53,0l1.06,1.06c.15,.15,.15,.38,0,.53-.07,.07-.17,.11-.27,.11Z"/><path class="cls-1" d="M1.88,7.75H.38c-.21,0-.38-.17-.38-.38s.17-.38,.38-.38H1.88c.21,0,.38,.17,.38,.38s-.17,.38-.38,.38Z"/><path class="cls-1" d="M2.42,12.7c-.1,0-.19-.04-.27-.11-.15-.15-.15-.38,0-.53l1.06-1.06c.15-.15,.38-.15,.53,0,.15,.15,.15,.38,0,.53l-1.06,1.06c-.07,.07-.17,.11-.27,.11Z"/><path class="cls-1" d="M7.38,14.75c-.21,0-.38-.17-.38-.38v-1.5c0-.21,.17-.38,.38-.38s.38,.17,.38,.38v1.5c0,.21-.17,.38-.38,.38Z"/><path class="cls-1" d="M12.33,12.7c-.1,0-.19-.04-.27-.11l-1.06-1.06c-.15-.15-.15-.38,0-.53,.15-.15,.38-.15,.53,0l1.06,1.06c.15,.15,.15,.38,0,.53-.07,.07-.17,.11-.27,.11Z"/><path class="cls-1" d="M14.38,7.75h-1.5c-.21,0-.38-.17-.38-.38s.17-.38,.38-.38h1.5c.21,0,.38,.17,.38,.38s-.17,.38-.38,.38Z"/><path class="cls-1" d="M11.26,3.86c-.1,0-.19-.04-.27-.11-.15-.15-.15-.38,0-.53l1.06-1.06c.15-.15,.38-.15,.53,0,.15,.15,.15,.38,0,.53l-1.06,1.06c-.07,.07-.17,.11-.27,.11Z"/></svg>