<svg xmlns="http://www.w3.org/2000/svg" viewBox="0 0 13 13"><path class="cls-1" d="M12.56,6.5c-.25-.02-.47,.17-.49,.42-.1,1.4-.73,2.71-1.76,3.66-1.03,.97-2.39,1.5-3.81,1.5-1.1,0-2.17-.32-3.09-.93-.8-.53-1.45-1.26-1.89-2.12h1.27c.25,0,.46-.2,.46-.46s-.2-.46-.46-.46H.46C.2,8.12,0,8.33,0,8.58c0,0,0,0,0,0v2.34C0,11.17,.2,11.38,.46,11.38s.46-.2,.46-.46H.91v-1.09c.5,.84,1.18,1.55,1.99,2.09,1.07,.71,2.31,1.08,3.59,1.08,1.65,0,3.22-.62,4.43-1.74,1.2-1.11,1.93-2.64,2.05-4.26,.02-.25-.17-.47-.42-.49,0,0,0,0,0,0h0Zm-.02-4.88c-.25,0-.46,.2-.46,.46,0,0,0,0,0,0v1.09c-.5-.84-1.18-1.55-1.99-2.09C9.03,.38,7.78,0,6.5,0c-1.64,0-3.23,.62-4.43,1.74C.87,2.86,.14,4.38,.02,6.01c-.02,.25,.17,.47,.42,.49,.25,.02,.47-.17,.49-.42,.1-1.4,.73-2.71,1.76-3.66,1.03-.97,2.39-1.5,3.81-1.5,1.1,0,2.17,.32,3.09,.93,.8,.53,1.45,1.26,1.89,2.12h-1.27c-.25,0-.46,.2-.46,.46s.2,.46,.46,.46h2.34c.25,0,.46-.2,.46-.46,0,0,0,0,0,0V2.08c0-.25-.2-.46-.46-.46,0,0,0,0,0,0h0Z"/></svg>