<svg xmlns="http://www.w3.org/2000/svg" viewBox="0 0 12.75 12.75"><path class="cls-1" d="M8.77,7.75l-.27-.7,3.46-1.33c.08-.13,.04-.32-.09-.46L7.49,.88c-.14-.14-.33-.17-.46-.09l-1.33,3.46-.7-.27L6.45,.3c.42-.42,1.12-.39,1.57,.05l4.38,4.38c.45,.45,.47,1.15,.05,1.57l-.13,.08-3.55,1.37Z"/><path class="cls-1" d="M7.35,11.68L1.07,5.4l2.91-1.15c.19-.07,.41,.02,.49,.21,.08,.19-.02,.41-.21,.49l-1.84,.73,4.66,4.66,.79-2.01c.08-.19,.29-.29,.49-.21,.19,.08,.29,.29,.21,.49l-1.21,3.08Z"/><path class="cls-1" d="M.37,12.75c-.1,0-.19-.04-.27-.11-.15-.15-.15-.38,0-.53l3.83-3.83c.15-.15,.38-.15,.53,0,.15,.15,.15,.38,0,.53L.64,12.64c-.07,.07-.17,.11-.27,.11Z"/><path class="cls-1" d="M11.37,11.75c-.1,0-.19-.04-.27-.11L1.11,1.64c-.15-.15-.15-.38,0-.53,.15-.15,.38-.15,.53,0L11.64,11.11c.15,.15,.15,.38,0,.53-.07,.07-.17,.11-.27,.11Z"/></svg>