<svg xmlns="http://www.w3.org/2000/svg" viewBox="0 0 13.38 12"><path class="cls-2" d="M5.29,11.37h-.13l-2.42-2H1.21c-.67,0-1.21-.62-1.21-1.38V4c0-.76,.54-1.38,1.21-1.38h1.53L5.16,.62h.13c.25,0,.46,.21,.46,.46V10.92c0,.25-.21,.46-.46,.46ZM1.21,3.37c-.25,0-.46,.29-.46,.62V8c0,.34,.21,.62,.46,.62h1.8l1.99,1.65V1.73l-1.99,1.65H1.21Z"/><path class="cls-1" d="M6.37,3.9s0-.09,.02-.13c.07-.21,.31-.32,.52-.25,1.1,.37,1.84,1.37,1.84,2.5,0,.55-.17,1.07-.49,1.52-.32,.43-.75,.76-1.26,.95-.21,.08-.45-.03-.53-.23-.08-.2,.03-.43,.24-.51,.36-.13,.66-.36,.89-.67,.23-.31,.35-.68,.35-1.06,0-.79-.52-1.49-1.29-1.75-.17-.06-.28-.21-.28-.37Z"/><path class="cls-1" d="M7.94,2.14c0-.07,.02-.14,.05-.2,.11-.19,.36-.25,.56-.14,.75,.42,1.38,1.03,1.83,1.75,.46,.75,.7,1.6,.7,2.48s-.24,1.71-.68,2.46c-.43,.72-1.05,1.32-1.79,1.75-.19,.11-.44,.05-.56-.14-.11-.19-.05-.43,.14-.54,.62-.36,1.14-.86,1.5-1.47,.37-.62,.57-1.33,.57-2.06s-.2-1.45-.58-2.07c-.37-.61-.9-1.12-1.53-1.47-.13-.07-.2-.21-.2-.34Z"/><path class="cls-1" d="M9.42,.4c0-.07,.02-.15,.07-.22,.12-.18,.38-.23,.57-.11,1,.64,1.83,1.51,2.41,2.52,.6,1.05,.91,2.23,.91,3.44,0,2.37-1.21,4.58-3.24,5.91-.19,.12-.44,.07-.57-.11-.13-.18-.08-.43,.11-.55,1.81-1.18,2.88-3.15,2.88-5.25S11.45,1.9,9.6,.73c-.12-.08-.18-.2-.18-.33Z"/></svg>