<svg xmlns="http://www.w3.org/2000/svg" viewBox="0 0 14 10.38"><path class="cls-1" d="M4.55,7.91s-.1,0-.15-.03c-.24-.08-.37-.35-.29-.59,.43-1.24,1.6-2.08,2.91-2.08,.64,0,1.25,.19,1.77,.56,.51,.36,.89,.85,1.11,1.43,.09,.24-.03,.5-.27,.6-.24,.09-.5-.03-.6-.27-.15-.4-.42-.75-.78-1-.36-.26-.79-.39-1.24-.39-.92,0-1.74,.58-2.04,1.45-.07,.19-.24,.31-.44,.31Z"/><path class="cls-1" d="M2.49,6.14c-.08,0-.16-.02-.23-.06-.22-.13-.3-.41-.17-.63,.49-.85,1.2-1.56,2.05-2.06,.87-.51,1.87-.79,2.89-.79s2,.27,2.86,.77c.84,.49,1.55,1.19,2.04,2.03,.13,.22,.06,.5-.16,.63-.22,.13-.5,.06-.63-.16-.42-.7-1.01-1.29-1.71-1.7-.73-.42-1.55-.65-2.4-.65s-1.69,.23-2.42,.66c-.71,.42-1.3,1.02-1.71,1.73-.09,.15-.24,.23-.4,.23Z"/><path class="cls-1" d="M.46,4.47c-.09,0-.17-.02-.25-.08-.21-.14-.27-.43-.13-.64C.82,2.62,1.84,1.68,3.02,1.03,4.24,.36,5.63,0,7.03,0c2.77,0,5.34,1.37,6.89,3.66,.14,.21,.09,.5-.12,.64-.21,.14-.5,.09-.64-.12-1.38-2.04-3.67-3.26-6.13-3.26S2.22,2.17,.85,4.26c-.09,.13-.24,.21-.39,.21Z"/><path class="cls-1" d="M5.72,9.07c0,.72,.59,1.31,1.31,1.31s1.31-.59,1.31-1.31-.59-1.31-1.31-1.31-1.31,.59-1.31,1.31Z"/></svg>