<?xml version="1.0" encoding="UTF-8"?><svg xmlns="http://www.w3.org/2000/svg" viewBox="0 0 14.75 14.75"><path class="cls-1" d="M.38,3.75c-.21,0-.38-.17-.38-.38V1.38C0,.62,.62,0,1.38,0H5.38c.21,0,.38,.17,.38,.38s-.17,.38-.38,.38H1.38c-.34,0-.62,.28-.62,.62V3.38c0,.21-.17,.38-.38,.38Z"/><path class="cls-1" d="M13.38,14.75h-2c-.21,0-.38-.17-.38-.38s.17-.38,.38-.38h2c.34,0,.62-.28,.62-.62v-4c0-.21,.17-.38,.38-.38s.38,.17,.38,.38v4c0,.76-.62,1.38-1.38,1.38Z"/><path class="cls-1" d="M14.38,5.75c-.21,0-.38-.17-.38-.38V1.38c0-.34-.28-.62-.62-.62h-4c-.21,0-.38-.17-.38-.38s.17-.38,.38-.38h4c.76,0,1.38,.62,1.38,1.38V5.38c0,.21-.17,.38-.38,.38Z"/><path class="cls-1" d="M8.38,14.75H1.38c-.76,0-1.38-.62-1.38-1.38V6.38c0-.76,.62-1.38,1.38-1.38h7c.76,0,1.38,.62,1.38,1.38v7c0,.76-.62,1.38-1.38,1.38ZM1.38,5.75c-.34,0-.62,.28-.62,.62v7c0,.34,.28,.62,.62,.62h7c.34,0,.62-.28,.62-.62V6.38c0-.34-.28-.62-.62-.62H1.38Z"/></svg>